<?xml version="1.0" encoding="UTF-8" standalone="no"?>
<svg
  xmlns:dc="http://purl.org/dc/elements/1.1/"
  xmlns:cc="http://creativecommons.org/ns#"
  xmlns:rdf="http://www.w3.org/1999/02/22-rdf-syntax-ns#"
  xmlns:svg="http://www.w3.org/2000/svg"
  xmlns="http://www.w3.org/2000/svg"
  viewBox="0 0 320 320"
  width="320"
  height="320"
  xml:space="preserve"
  version="1.1">
  <metadata>
    <rdf:RDF>
      <cc:Work rdf:about="">
        <dc:format>image/svg+xml</dc:format>
        <dc:type rdf:resource="http://purl.org/dc/dcmitype/StillImage" />
      </cc:Work>
    </rdf:RDF>
  </metadata>
  <g transform="matrix(1.3333333,0,0,-1.3333333,-48,562.3)">
    <path
      style="fill:none;fill-opacity:1;fill-rule:evenodd;stroke:none"
      d="M 36.2013,193.9697 H 300.0555 V 457.8239 H 36.2013 Z" />
    <path
      style="fill:#592e0b;fill-opacity:1;fill-rule:evenodd;stroke:none"
      d="m 118.9973,419.6171 c -3.7743,-0.3713 -7.5606,-1.0051 -11.3616,-1.5052 -3.4457,-0.4535 -2.6098,-0.0856 -4.3565,-2.1163 -3.7486,-4.3583 -2.9157,-3.0087 -7.8732,-4.993 -7.1816,-2.8749 -7.3222,-1.6778 -7.8826,-4.9807 -1.438,-8.4796 -1.4925,-4.6726 3.5696,-10.0307 1.6699,-1.7677 3.9566,-0.2336 7.7162,-0.5145 4.4113,-0.3296 7.9665,-3.1634 14.4842,-2.8273 l -3.5268,-31.9351 c -0.1857,-1.4873 0.2979,-2.6302 -0.7646,-3.6394 0.0862,-1.6327 0.2211,0.9905 0.258,-0.9558 l -3.3242,-30.1303 c -1.4301,-12.1482 -1.423,-20.2451 0.7841,-32.3303 2.0185,-11.0528 6.7266,-22.983 13.3974,-30.9716 0.8617,-1.0315 1.0097,-1.4757 2.0233,-2.3607 0.8884,-0.775 1.4253,-1.3351 2.2938,-2.3442 1.3289,-1.5444 7.683,-6.3616 10.4545,-7.4892 1.4851,0.6639 10.0593,10.0503 12.8834,11.8503 0.8263,-1.1209 6.6646,-20.6482 7.2397,-22.4609 0.8759,-2.7604 6.9608,-21.5246 6.8517,-22.5836 -6.3536,-0.6543 -12.0388,-5.209 -11.3046,-10.6359 l 18.7792,-0.0272 0.0587,56.3918 26.7262,10.0885 c -1.1044,3.3616 -2.0018,6.1217 -1.77,10.27 0.1914,3.4183 0.9743,7.3978 2.5932,9.8095 1.3393,-18.1998 15.8882,-36.769 32.5111,-42.7989 2.7958,-1.0139 2.6892,-0.9025 3.9005,-3.5577 l 11.8499,-26.3597 c -1.4556,1.4502 -5.5341,8.3223 -7.1878,10.6577 -1.2016,1.6971 -2.3224,3.4937 -3.4549,5.3014 -0.9595,1.5321 -6.2852,10.0593 -7.2513,10.5383 -4.329,2.1476 -5.6429,1.8426 -12.2094,5.5704 -1.707,0.9692 -4.2556,2.8386 -5.7753,3.3942 l 4.6868,-12.4843 c 1.6175,-4.085 3.1312,-8.2112 4.6471,-12.3316 2.3293,-6.3315 5.8278,-12.024 -5.5264,-14.8867 -2.7479,-0.6925 -5.1568,-0.6228 -7.6031,-1.1806 l 0.0573,-8.3305 66.5252,-0.091 0.0263,8.5419 c -6.4876,0.5256 -10.851,2.8126 -14.0876,7.6465 -1.8777,2.8049 -14.8368,43.6221 -16.4185,49.2857 l -6.221,23.1803 9.1678,0.0454 c 0.2688,3.7771 -2.2305,8.9498 -4.0005,11.287 -2.3584,3.1138 -4.4266,4.8583 -8.3826,7.0843 -8.3466,4.6959 -16.7054,2.9256 -26.2517,1.7107 -18.3829,-2.3391 -37.0468,-4.769 -55.4017,-6.8046 -2.137,10.9662 -4.8138,22.6027 -7.355,33.5597 -2.6249,11.317 -4.9697,22.4665 -7.3987,33.46 z" />
    <path
      style="fill:#1c1c1c;fill-opacity:1;fill-rule:evenodd;stroke:none"
      d="m 155.5024,315.8904 1.0965,-0.0199 3.5282,10.069 c 1.6844,4.6471 9.7549,29.4134 10.5781,30.2865 l 13.0221,-36.8482 32.8663,4.0156 c -0.195,1.3127 -19.8068,49.6074 -21.2477,53.1643 -2.4315,6.0032 -4.6341,12.087 -7.1022,17.8793 l -34.2873,0.0176 c -0.8033,-1.2413 -2.9066,-6.9452 -3.6048,-8.7943 -1.1582,-3.0679 -2.4248,-6.0718 -3.5632,-9.0527 -0.9181,-2.404 -3.355,-6.5792 -2.749,-9.3325 1.7317,-7.8664 10.9247,-50.6035 11.463,-51.3847" />
    <path
      style="fill:#1c1c1c;fill-opacity:1;fill-rule:evenodd;stroke:none"
      d="m 75.3024,215.1797 0.0059,-8.525 c 19.9497,-0.0643 42.2326,-0.246 62.0215,0.0196 0.0694,11.5863 1.0094,7.5339 -5.1316,9.3557 -1.5052,0.4465 -3.0223,1.0877 -4.2222,1.9489 -2.7978,2.0083 -3.7448,4.2284 -2.306,8.405 1.1883,3.4497 6.0146,16.1935 6.4662,18.409 -1.9389,0.5746 -6.2164,3.8064 -7.6627,4.9816 -7.3315,5.9579 -12.166,11.8953 -16.4106,20.4214 l -0.8019,1.1318 c -1.7184,-5.2939 -3.863,-10.752 -5.83,-16.0925 -1.2509,-3.3956 -10.3708,-29.8749 -11.8656,-32.1863 -2.6172,-4.0484 -7.3936,-7.4897 -14.263,-7.8692" />
    <path
      style="fill:#aa8f71;fill-opacity:1;fill-rule:evenodd;stroke:none"
      d="m 109.0417,420.942 6.9472,0.9151 c 0.2151,3.7791 -1.26,5.4207 -2.7159,7.9152 -1.3413,2.2974 -2.5815,5.0816 -4.1513,7.0772 -2.1124,-1.2254 -2.7579,-4.8841 -2.541,-7.884 0.273,-3.7766 1.4887,-5.2464 2.461,-8.0235" />
  </g>
</svg>
